PathFileType	4	(X/Y/Z)	Kaydara																																																																																																																									
DataRate	CameraRate	NumFrames	NumMarkers	Units	OrigDataRate	OrigDataStartFrame	OrigNumFrames																																																																																																																					
30	30	4	41	mm	30	123	321																																																																																																																					
Frame#	Time	PAIB_LFHD			PAIB_RFHD			PAIB_LBHD			PAIB_RBHD			PAIB_LFTShould			PAIB_RFTShould			PAIB_LRRShould			PAIB_RRRShould			PAIB_T10			PAIB_STRN			PAIB_TRUN			PAIB_LSHO			PAIB_LUPA			PAIB_LELB			PAIB_LFRM			PAIB_LWRA			PAIB_LWRB			PAIB_LFIN			PAIB_RSHO			PAIB_RUPA			PAIB_RELB			PAIB_RFRM			PAIB_RWRA			PAIB_RWRB			PAIB_RFIN			PAIB_LFWT			PAIB_RFWT			PAIB_LBWT			PAIB_RBWT			PAIB_LTHI			PAIB_LKNE			PAIB_LSHN			PAIB_LANK			PAIB_LHEE			PAIB_LTOE			PAIB_RTHI			PAIB_RKNE			PAIB_RSHN			PAIB_RANK			PAIB_RHEE			PAIB_RTOE		
		X1	Y1	Z1	X2	Y2	Z2	X3	Y3	Z3	X4	Y4	Z4	X5	Y5	Z5	X6	Y6	Z6	X7	Y7	Z7	X8	Y8	Z8	X9	Y9	Z9	X10	Y10	Z10	X11	Y11	Z11	X12	Y12	Z12	X13	Y13	Z13	X14	Y14	Z14	X15	Y15	Z15	X16	Y16	Z16	X17	Y17	Z17	X18	Y18	Z18	X19	Y19	Z19	X20	Y20	Z20	X21	Y21	Z21	X22	Y22	Z22	X23	Y23	Z23	X24	Y24	Z24	X25	Y25	Z25	X26	Y26	Z26	X27	Y27	Z27	X28	Y28	Z28	X29	Y29	Z29	X30	Y30	Z30	X31	Y31	Z31	X32	Y32	Z32	X33	Y33	Z33	X34	Y34	Z34	X35	Y35	Z35	X36	Y36	Z36	X37	Y37	Z37	X38	Y38	Z38	X39	Y39	Z39	X40	Y40	Z40	X41	Y41	Z41
																																																																																																																												
121	4.06	239.09267	1588.77838	-1037.2921	55.19892	1593.24799	-1052.42104	257.86871	1631.46713	-1157.77138	54.74154	1640.25238	-1157.77649	217.16633	1380.01678	-1157.2805	96.82845	1373.72604	-1163.26004	231.06276	1477.70676	-1280.53543	75.17049	1471.07239	-1277.01866	156.85496	1339.26315	-1396.52008	165.65979	1305.71884	-1139.10812	167.75887	1201.56616	-1141.88255	348.45497	1410.57877	-1217.16957	403.81516	1185.18921	-1246.07422	425.87227	1104.38065	-1294.45282	440.40134	986.72386	-1259.48593	375.23117	867.89688	-1183.5228	418.19328	853.27034	-1250.36644	425.68317	813.2663	-1189.33533	-31.85658	1386.70624	-1212.37747	-91.07173	1221.95885	-1284.99298	-109.17265	1107.28943	-1317.53845	-120.08785	967.13875	-1301.24298	-56.06478	857.00424	-1212.20459	-121.96404	844.34631	-1263.45108	-113.46327	803.89946	-1201.37024	277.99234	946.51108	-1211.66763	44.6117	959.73045	-1194.95155	201.86079	1007.7372	-1422.44232	57.41872	1006.6153	-1414.7818	246.77275	748.17459	-1446.96121	290.22425	486.01345	-1397.94113	266.13693	311.05984	-1472.64145	258.8158	182.81986	-1633.57697	200.03082	195.28427	-1677.11823	252.05151	68.38754	-1504.77448	6.80715	692.64359	-1342.50992	15.15193	479.3972	-1195.09811	80.42978	304.02227	-1144.188	52.18337	90.18482	-1193.82889	115.48042	95.61974	-1246.39648	72.46105	69.8824	-1019.62784
122	4.093	231.95972	1592.04025	-1015.2597	47.97419	1595.42816	-1029.9527	250.11185	1635.40054	-1135.59608	46.98226	1642.85675	-1135.12268	211.73407	1383.93845	-1136.15616	91.18681	1376.6687	-1140.27512	223.00394	1481.51047	-1260.17441	67.45926	1473.40866	-1253.75237	147.82312	1341.7868	-1374.18564	161.06022	1309.29535	-1116.9442	163.68147	1205.1252	-1119.31259	341.73717	1415.62576	-1197.80853	399.5105	1191.2059	-1228.28255	422.90524	1111.28029	-1277.59369	437.65884	993.32458	-1243.48053	371.6354	873.57239	-1169.82811	416.11038	859.79889	-1236.0759	422.21569	819.05937	-1175.14923	-38.13074	1389.17389	-1186.99432	-98.27282	1223.93936	-1257.39136	-116.43702	1108.86208	-1289.02863	-124.79326	968.5511	-1269.88274	-56.96196	861.71104	-1179.54796	-123.54466	846.59676	-1229.23286	-113.01837	807.71957	-1166.44234	273.99397	950.16075	-1191.06796	40.45685	961.92787	-1169.46648	194.88964	1009.66377	-1400.77362	50.59424	1009.72054	-1390.61295	241.96297	741.26122	-1416.42075	293.93923	484.36321	-1355.79361	269.12983	314.24414	-1442.0845	259.49551	199.68613	-1613.02261	199.61628	216.20922	-1653.51486	250.28442	68.55546	-1501.34155	2.51806	696.35567	-1323.84155	12.07767	478.50422	-1187.20459	79.90709	302.80924	-1138.15338	52.98619	90.64485	-1193.84148	115.7607	96.52331	-1245.34935	73.93232	68.18124	-1017.73811
123	4.127	225.84129	1594.43497	-994.36333	41.76121	1596.80435	-1008.10028	243.12389	1637.99759	-1114.62799	39.99536	1644.39972	-1113.17055	207.6738	1386.78741	-1116.17287	87.31747	1378.35281	-1118.06259	215.64896	1484.4194	-1240.94078	60.37961	1474.55963	-1230.92163	139.59354	1343.66867	-1352.98325	157.76619	1311.70135	-1095.90836	160.95411	1207.54807	-1097.97752	336.13766	1419.73557	-1180.91232	395.68386	1196.17233	-1212.92374	419.48818	1116.75369	-1262.74467	434.41841	998.83339	-1228.11615	367.95406	879.24782	-1154.58244	413.04527	865.22026	-1220.30792	418.57059	824.93217	-1159.10439	-43.19064	1390.15869	-1161.98914	-105.39223	1224.87663	-1230.16113	-124.30694	1109.37065	-1260.30571	-129.87254	969.14886	-1237.75719	-57.06741	865.92796	-1146.76155	-124.99281	848.31192	-1193.59329	-111.56487	811.38657	-1130.27748	270.05611	952.50732	-1171.5332	37.07982	963.9653	-1147.31262	189.90141	1010.30769	-1380.3685	45.66786	1013.218	-1367.9834	238.10839	732.06978	-1384.84268	297.57664	481.71253	-1312.20154	271.03167	315.89117	-1405.26901	260.19794	214.82876	-1584.15619	200.06935	236.12913	-1622.46338	247.95174	70.11876	-1493.82645	-3.92732	700.42557	-1307.79404	9.05377	478.89431	-1174.92165	77.1296	301.70904	-1133.33397	52.28494	90.37376	-1192.24243	115.43522	97.43127	-1245.30334	73.73669	67.29082	-1017.19452
124	4.16	220.6344	1596.22269	-974.12003	36.58553	1597.06818	-987.61261	237.44167	1640.12115	-1094.39735	34.2034	1644.7287	-1092.62589	204.74636	1389.01688	-1097.12769	84.24564	1379.24103	-1096.75171	209.43981	1486.7572	-1222.26913	54.54871	1474.98688	-1208.9917	132.33381	1345.1329	-1332.70065	155.75539	1313.22449	-1075.86807	159.52893	1209.04617	-1078.31093	331.69319	1422.96295	-1164.71642	393.04043	1200.3157	-1200.10757	415.16399	1120.91652	-1250.38612	430.58949	1002.99156	-1214.70291	365.55031	884.65317	-1137.90512	408.64578	869.60747	-1204.60205	415.61852	830.03738	-1143.05336	-46.87262	1390.33539	-1137.93503	-111.22344	1224.91417	-1203.1134	-131.39204	1109.0155	-1231.12503	-134.52974	969.09584	-1205.05898	-57.03716	869.31923	-1113.91922	-126.49225	849.55864	-1157.72987	-110.17859	814.65912	-1093.94653	266.22717	954.2556	-1152.46666	33.33525	965.46562	-1126.24893	184.96422	1010.00641	-1360.9671	40.78551	1015.54321	-1346.9249	233.75893	725.85907	-1352.99286	301.90002	480.66257	-1267.39845	272.22855	319.12775	-1366.04218	259.47296	228.34505	-1550.29144	199.40329	252.74965	-1586.80511	249.72515	75.61006	-1466.30249	-7.83208	703.50616	-1293.51746	6.36329	479.10522	-1166.40114	74.33921	300.63675	-1129.18541	52.06583	90.10212	-1190.06973	115.27693	98.07616	-1245.41611	73.51659	66.80182	-1016.87149
